<?xml version="1.0" encoding="UTF-8" standalone="no"?><!DOCTYPE svg PUBLIC "-//W3C//DTD SVG 1.1//EN" "http://www.w3.org/Graphics/SVG/1.1/DTD/svg11.dtd"><svg width="100%" height="100%" viewBox="0 0 29 34" version="1.1" xmlns="http://www.w3.org/2000/svg" xmlns:xlink="http://www.w3.org/1999/xlink" xml:space="preserve" xmlns:serif="http://www.serif.com/" style="fill-rule:evenodd;clip-rule:evenodd;stroke-linejoin:round;stroke-miterlimit:1.41421;"><path d="M-6.755,33.548l0,35.399l-13.155,0l0,-87.171l14.905,0c7.302,0 12.816,0.508 16.542,1.524c3.764,1.016 7.077,2.936 9.937,5.759c5.006,4.893 7.509,11.066 7.509,18.518c0,7.98 -2.672,14.303 -8.017,18.97c-5.345,4.667 -12.553,7.001 -21.624,7.001l-6.097,0Zm0,-12.195l4.912,0c12.082,0 18.123,-4.648 18.123,-13.945c0,-8.996 -6.229,-13.494 -18.688,-13.494l-4.347,0l0,27.439Z" style="fill-rule:nonzero;"/><path d="M87.361,47.775l-37.319,0l-9.711,21.172l-14.171,0l43.134,-92.648l41.61,92.648l-14.397,0l-9.146,-21.172Zm-5.364,-12.364l-12.929,-29.641l-13.55,29.641l26.479,0Z" style="fill-rule:nonzero;"/></svg>