<?xml version="1.0" encoding="UTF-8" standalone="no"?><!DOCTYPE svg PUBLIC "-//W3C//DTD SVG 1.1//EN" "http://www.w3.org/Graphics/SVG/1.1/DTD/svg11.dtd"><svg width="100%" height="100%" viewBox="0 0 71 44" version="1.1" xmlns="http://www.w3.org/2000/svg" xmlns:xlink="http://www.w3.org/1999/xlink" xml:space="preserve" xmlns:serif="http://www.serif.com/" style="fill-rule:evenodd;clip-rule:evenodd;stroke-linejoin:round;stroke-miterlimit:1.41421;"><path d="M-23.952,71.775l-37.319,0l-9.711,21.172l-14.171,0l43.134,-92.648l41.61,92.648l-14.397,0l-9.146,-21.172Zm-5.364,-12.364l-12.929,-29.641l-13.55,29.641l26.479,0Z" style="fill-rule:nonzero;"/><path d="M70.841,10.462l0,15.582c-7.603,-6.361 -15.47,-9.541 -23.6,-9.541c-8.958,0 -16.504,3.218 -22.639,9.654c-6.173,6.399 -9.259,14.228 -9.259,23.487c0,9.146 3.086,16.862 9.259,23.148c6.172,6.285 13.738,9.428 22.696,9.428c4.63,0 8.563,-0.753 11.8,-2.258c1.806,-0.753 3.679,-1.769 5.617,-3.049c1.939,-1.28 3.981,-2.823 6.126,-4.63l0,15.865c-7.528,4.253 -15.432,6.38 -23.712,6.38c-12.459,0 -23.092,-4.347 -31.899,-13.042c-8.77,-8.77 -13.155,-19.346 -13.155,-31.729c0,-11.104 3.67,-21.003 11.009,-29.697c9.034,-10.652 20.72,-15.978 35.061,-15.978c7.829,0 15.394,2.127 22.696,6.38Z" style="fill-rule:nonzero;"/></svg>