<?xml version="1.0" encoding="UTF-8" standalone="no"?><!DOCTYPE svg PUBLIC "-//W3C//DTD SVG 1.1//EN" "http://www.w3.org/Graphics/SVG/1.1/DTD/svg11.dtd"><svg width="100%" height="100%" viewBox="0 0 60 71" version="1.1" xmlns="http://www.w3.org/2000/svg" xmlns:xlink="http://www.w3.org/1999/xlink" xml:space="preserve" xmlns:serif="http://www.serif.com/" style="fill-rule:evenodd;clip-rule:evenodd;stroke-linejoin:round;stroke-miterlimit:1.41421;"><path d="M-31.472,24.966c0,-12.27 4.498,-22.809 13.493,-31.616c8.958,-8.808 19.723,-13.212 32.295,-13.212c12.42,0 23.072,4.442 31.955,13.325c8.92,8.882 13.38,19.553 13.38,32.011c0,12.534 -4.479,23.167 -13.437,31.899c-8.995,8.77 -19.854,13.155 -32.576,13.155c-11.254,0 -21.36,-3.896 -30.318,-11.687c-9.861,-8.619 -14.792,-19.911 -14.792,-33.875Zm13.268,0.17c0,9.635 3.237,17.558 9.71,23.769c6.437,6.21 13.87,9.315 22.301,9.315c9.147,0 16.863,-3.162 23.148,-9.485c6.286,-6.398 9.429,-14.19 9.429,-23.374c0,-9.296 -3.105,-17.088 -9.316,-23.373c-6.173,-6.324 -13.813,-9.485 -22.922,-9.485c-9.071,0 -16.73,3.161 -22.978,9.485c-6.248,6.248 -9.372,13.964 -9.372,23.148Z" style="fill-rule:nonzero;"/></svg>