<?xml version="1.0" encoding="UTF-8" standalone="no"?><!DOCTYPE svg PUBLIC "-//W3C//DTD SVG 1.1//EN" "http://www.w3.org/Graphics/SVG/1.1/DTD/svg11.dtd"><svg width="23px" height="63px" version="1.1" xmlns="http://www.w3.org/2000/svg" xmlns:xlink="http://www.w3.org/1999/xlink" xml:space="preserve" xmlns:serif="http://www.serif.com/" style="fill-rule:evenodd;clip-rule:evenodd;stroke-linejoin:round;stroke-miterlimit:1.41421;"><g transform="matrix(1,0,0,1,-609,-292)"><g transform="matrix(0.469701,0,0,0.469701,-40.2814,149.302)"><path d="M1318.87,491.048l0,-185.59l27.886,0c12.421,0 22.317,0.962 29.69,2.885c7.452,1.923 13.742,5.169 18.871,9.736c5.209,4.728 9.336,10.618 12.381,17.67c3.125,7.132 4.687,14.344 4.687,21.636c0,13.302 -5.088,24.561 -15.265,33.776c9.856,3.366 17.629,9.256 23.319,17.67c5.769,8.333 8.654,18.03 8.654,29.088c0,14.504 -5.128,26.765 -15.385,36.781c-6.171,6.171 -13.102,10.458 -20.795,12.862c-8.414,2.324 -18.952,3.486 -31.613,3.486l-42.43,0Zm28.006,-105.897l8.775,0c10.417,0 18.05,-2.304 22.898,-6.911c4.848,-4.608 7.272,-11.399 7.272,-20.374c0,-8.735 -2.484,-15.366 -7.452,-19.894c-4.969,-4.527 -12.181,-6.791 -21.636,-6.791l-9.857,0l0,53.97Zm0,79.573l17.309,0c12.661,0 21.957,-2.484 27.887,-7.453c6.25,-5.369 9.375,-12.18 9.375,-20.434c0,-8.013 -3.005,-14.744 -9.015,-20.193c-5.85,-5.369 -16.307,-8.054 -31.372,-8.054l-14.184,0l0,56.134Z" style="fill-rule:nonzero;"/></g></g></svg>