<?xml version="1.0" encoding="UTF-8" standalone="no"?><!DOCTYPE svg PUBLIC "-//W3C//DTD SVG 1.1//EN" "http://www.w3.org/Graphics/SVG/1.1/DTD/svg11.dtd"><svg width="100%" height="100%" viewBox="0 0 53 25" version="1.1" xmlns="http://www.w3.org/2000/svg" xmlns:xlink="http://www.w3.org/1999/xlink" xml:space="preserve" xmlns:serif="http://www.serif.com/" style="fill-rule:evenodd;clip-rule:evenodd;stroke-linejoin:round;stroke-miterlimit:1.41421;"><path d="M0.194,24.947l0,-87.171l13.098,0c5.834,0 10.482,0.451 13.945,1.355c3.501,0.903 6.455,2.427 8.864,4.573c2.447,2.22 4.385,4.987 5.815,8.299c1.468,3.35 2.202,6.737 2.202,10.163c0,6.248 -2.39,11.536 -7.17,15.864c4.63,1.581 8.281,4.348 10.953,8.3c2.71,3.914 4.065,8.468 4.065,13.663c0,6.812 -2.409,12.571 -7.227,17.276c-2.898,2.898 -6.154,4.912 -9.767,6.041c-3.952,1.091 -8.902,1.637 -14.848,1.637l-19.93,0Zm13.155,-49.74l4.121,0c4.893,0 8.478,-1.082 10.755,-3.246c2.277,-2.164 3.416,-5.354 3.416,-9.57c0,-4.102 -1.167,-7.217 -3.5,-9.343c-2.334,-2.127 -5.722,-3.19 -10.163,-3.19l-4.629,0l0,25.349Zm0,37.376l8.13,0c5.946,0 10.313,-1.167 13.098,-3.501c2.936,-2.521 4.404,-5.721 4.404,-9.597c0,-3.764 -1.412,-6.926 -4.235,-9.485c-2.747,-2.522 -7.659,-3.783 -14.735,-3.783l-6.662,0l0,26.366Z" style="fill-rule:nonzero;"/></svg>