<?xml version="1.0" encoding="UTF-8" standalone="no"?><!DOCTYPE svg PUBLIC "-//W3C//DTD SVG 1.1//EN" "http://www.w3.org/Graphics/SVG/1.1/DTD/svg11.dtd"><svg width="100%" height="100%" viewBox="0 0 58 22" version="1.1" xmlns="http://www.w3.org/2000/svg" xmlns:xlink="http://www.w3.org/1999/xlink" xml:space="preserve" xmlns:serif="http://www.serif.com/" style="fill-rule:evenodd;clip-rule:evenodd;stroke-linejoin:round;stroke-miterlimit:1.41421;"><path d="M53.853,14.761l-10.671,6.323c-1.995,-3.462 -3.895,-5.721 -5.702,-6.775c-1.882,-1.204 -4.31,-1.806 -7.283,-1.806c-3.651,0 -6.681,1.035 -9.09,3.105c-2.409,2.032 -3.613,4.592 -3.613,7.678c0,4.253 3.161,7.679 9.485,10.276l8.694,3.557c7.076,2.86 12.252,6.351 15.526,10.473c3.275,4.121 4.912,9.174 4.912,15.159c0,8.017 -2.672,14.641 -8.017,19.873c-5.382,5.269 -12.063,7.904 -20.043,7.904c-7.565,0 -13.813,-2.239 -18.744,-6.718c-4.855,-4.48 -7.885,-10.784 -9.09,-18.914l13.325,-2.936c0.602,5.119 1.656,8.657 3.161,10.614c2.71,3.764 6.662,5.646 11.856,5.646c4.103,0 7.509,-1.374 10.219,-4.121c2.71,-2.748 4.065,-6.23 4.065,-10.445c0,-1.694 -0.235,-3.246 -0.705,-4.658c-0.471,-1.411 -1.205,-2.71 -2.202,-3.896c-0.998,-1.185 -2.287,-2.295 -3.868,-3.331c-1.58,-1.035 -3.462,-2.023 -5.645,-2.964l-8.413,-3.5c-11.931,-5.044 -17.897,-12.421 -17.897,-22.132c0,-6.549 2.503,-12.025 7.509,-16.429c5.006,-4.441 11.235,-6.662 18.688,-6.662c10.049,0 17.897,4.893 23.543,14.679Z" style="fill-rule:nonzero;"/></svg>