<?xml version="1.0" encoding="UTF-8" standalone="no"?><!DOCTYPE svg PUBLIC "-//W3C//DTD SVG 1.1//EN" "http://www.w3.org/Graphics/SVG/1.1/DTD/svg11.dtd"><svg width="100%" height="100%" viewBox="0 0 660 97" version="1.1" xmlns="http://www.w3.org/2000/svg" xmlns:xlink="http://www.w3.org/1999/xlink" xml:space="preserve" xmlns:serif="http://www.serif.com/" style="fill-rule:evenodd;clip-rule:evenodd;stroke-linejoin:round;stroke-miterlimit:1.41421;"><path d="M13.245,59.548l0,35.399l-13.155,0l0,-87.171l14.905,0c7.302,0 12.816,0.508 16.542,1.524c3.764,1.016 7.077,2.936 9.937,5.759c5.006,4.893 7.509,11.066 7.509,18.518c0,7.98 -2.672,14.303 -8.017,18.97c-5.345,4.667 -12.553,7.001 -21.624,7.001l-6.097,0Zm0,-12.195l4.912,0c12.082,0 18.123,-4.648 18.123,-13.945c0,-8.996 -6.229,-13.494 -18.688,-13.494l-4.347,0l0,27.439Z" style="fill-rule:nonzero;"/><path d="M107.361,73.775l-37.319,0l-9.711,21.172l-14.171,0l43.134,-92.648l41.61,92.648l-14.397,0l-9.146,-21.172Zm-5.364,-12.364l-12.929,-29.641l-13.55,29.641l26.479,0Z" style="fill-rule:nonzero;"/><path d="M160.996,20.14l0,74.807l-13.155,0l0,-74.807l-20.042,0l0,-12.364l53.183,0l0,12.364l-19.986,0Z" style="fill-rule:nonzero;"/><path d="M254.943,7.776l0,56.401c0,6.738 -0.471,11.763 -1.412,15.075c-0.941,3.764 -2.54,6.944 -4.799,9.541c-4.403,5.157 -10.237,7.735 -17.502,7.735c-5.495,0 -10.633,-1.43 -15.413,-4.291l6.436,-11.235c3.2,2.145 6.192,3.218 8.977,3.218c3.915,0 6.625,-1.487 8.13,-4.46c1.581,-2.974 2.371,-8.168 2.371,-15.583l0,-56.401l13.212,0Z" style="fill-rule:nonzero;"/><path d="M324.048,73.775l-37.319,0l-9.711,21.172l-14.171,0l43.134,-92.648l41.61,92.648l-14.397,0l-9.146,-21.172Zm-5.364,-12.364l-12.929,-29.641l-13.55,29.641l26.479,0Z" style="fill-rule:nonzero;"/><path d="M418.841,12.462l0,15.582c-7.603,-6.361 -15.47,-9.541 -23.6,-9.541c-8.958,0 -16.504,3.218 -22.639,9.654c-6.173,6.399 -9.259,14.228 -9.259,23.487c0,9.146 3.086,16.862 9.259,23.148c6.172,6.285 13.738,9.428 22.696,9.428c4.63,0 8.563,-0.753 11.8,-2.258c1.806,-0.753 3.679,-1.769 5.617,-3.049c1.939,-1.28 3.981,-2.823 6.126,-4.63l0,15.865c-7.528,4.253 -15.432,6.38 -23.712,6.38c-12.459,0 -23.092,-4.347 -31.899,-13.042c-8.77,-8.77 -13.155,-19.346 -13.155,-31.729c0,-11.104 3.67,-21.003 11.009,-29.697c9.034,-10.652 20.72,-15.978 35.061,-15.978c7.829,0 15.394,2.127 22.696,6.38Z" style="fill-rule:nonzero;"/><path d="M430.528,50.966c0,-12.27 4.498,-22.809 13.493,-31.616c8.958,-8.808 19.723,-13.212 32.295,-13.212c12.42,0 23.072,4.442 31.955,13.325c8.92,8.882 13.38,19.553 13.38,32.011c0,12.534 -4.479,23.167 -13.437,31.899c-8.995,8.77 -19.854,13.155 -32.576,13.155c-11.254,0 -21.36,-3.896 -30.318,-11.687c-9.861,-8.619 -14.792,-19.911 -14.792,-33.875Zm13.268,0.17c0,9.635 3.237,17.558 9.71,23.769c6.437,6.21 13.87,9.315 22.301,9.315c9.147,0 16.863,-3.162 23.148,-9.485c6.286,-6.398 9.429,-14.19 9.429,-23.374c0,-9.296 -3.105,-17.088 -9.316,-23.373c-6.173,-6.324 -13.813,-9.485 -22.922,-9.485c-9.071,0 -16.73,3.161 -22.978,9.485c-6.248,6.248 -9.372,13.964 -9.372,23.148Z" style="fill-rule:nonzero;"/><path d="M538.194,94.947l0,-87.171l13.098,0c5.834,0 10.482,0.451 13.945,1.355c3.501,0.903 6.455,2.427 8.864,4.573c2.447,2.22 4.385,4.987 5.815,8.299c1.468,3.35 2.202,6.737 2.202,10.163c0,6.248 -2.39,11.536 -7.17,15.864c4.63,1.581 8.281,4.348 10.953,8.3c2.71,3.914 4.065,8.468 4.065,13.663c0,6.812 -2.409,12.571 -7.227,17.276c-2.898,2.898 -6.154,4.912 -9.767,6.041c-3.952,1.091 -8.902,1.637 -14.848,1.637l-19.93,0Zm13.155,-49.74l4.121,0c4.893,0 8.478,-1.082 10.755,-3.246c2.277,-2.164 3.416,-5.354 3.416,-9.57c0,-4.102 -1.167,-7.217 -3.5,-9.343c-2.334,-2.127 -5.722,-3.19 -10.163,-3.19l-4.629,0l0,25.349Zm0,37.376l8.13,0c5.946,0 10.313,-1.167 13.098,-3.501c2.936,-2.521 4.404,-5.721 4.404,-9.597c0,-3.764 -1.412,-6.926 -4.235,-9.485c-2.747,-2.522 -7.659,-3.783 -14.735,-3.783l-6.662,0l0,26.366Z" style="fill-rule:nonzero;"/><path d="M655.853,20.761l-10.671,6.323c-1.995,-3.462 -3.895,-5.721 -5.702,-6.775c-1.882,-1.204 -4.31,-1.806 -7.283,-1.806c-3.651,0 -6.681,1.035 -9.09,3.105c-2.409,2.032 -3.613,4.592 -3.613,7.678c0,4.253 3.161,7.679 9.485,10.276l8.694,3.557c7.076,2.86 12.252,6.351 15.526,10.473c3.275,4.121 4.912,9.174 4.912,15.159c0,8.017 -2.672,14.641 -8.017,19.873c-5.382,5.269 -12.063,7.904 -20.043,7.904c-7.565,0 -13.813,-2.239 -18.744,-6.718c-4.855,-4.48 -7.885,-10.784 -9.09,-18.914l13.325,-2.936c0.602,5.119 1.656,8.657 3.161,10.614c2.71,3.764 6.662,5.646 11.856,5.646c4.103,0 7.509,-1.374 10.219,-4.121c2.71,-2.748 4.065,-6.23 4.065,-10.445c0,-1.694 -0.235,-3.246 -0.705,-4.658c-0.471,-1.411 -1.205,-2.71 -2.202,-3.896c-0.998,-1.185 -2.287,-2.295 -3.868,-3.331c-1.58,-1.035 -3.462,-2.023 -5.645,-2.964l-8.413,-3.5c-11.931,-5.044 -17.897,-12.421 -17.897,-22.132c0,-6.549 2.503,-12.025 7.509,-16.429c5.006,-4.441 11.235,-6.662 18.688,-6.662c10.049,0 17.897,4.893 23.543,14.679Z" style="fill-rule:nonzero;"/></svg>